<svg xmlns="http://www.w3.org/2000/svg" viewBox="0 0 59 26"><path fill="#7891AB" d="M16.2 9.2c-.8-.8-1.8-1.5-3-2s-2.4-.7-3.9-.7c-1.4 0-2.7.2-3.9.7-1.1.5-2.1 1.1-2.9 2-.8.8-1.4 1.9-1.9 3.1-.4 1.2-.7 2.5-.7 4s.2 2.8.7 4c.4 1.2 1.1 2.2 1.9 3.1.8.8 1.8 1.5 2.9 2 1.2.4 2.5.6 4 .6 1.4 0 2.7-.2 3.9-.7 1.2-.5 2.1-1.1 3-2 .8-.8 1.4-1.9 1.9-3.1.4-1.2.7-2.5.7-4s-.2-2.8-.7-4c-.6-1.1-1.2-2.1-2-3zm-2.6 9.3c-.1.7-.4 1.3-.7 1.9-.3.6-.8 1-1.4 1.3-.6.3-1.3.5-2.1.5s-1.5-.2-2.1-.5c-.6-.3-1-.8-1.3-1.3-.3-.6-.6-1.2-.7-1.9-.3-.7-.3-1.4-.3-2.2 0-.7.1-1.5.2-2.2.1-.7.4-1.3.7-1.9.3-.5.8-1 1.3-1.3.6-.3 1.3-.5 2.1-.5s1.5.2 2.1.5c.6.3 1 .8 1.4 1.3.3.5.6 1.2.7 1.9.1.7.2 1.4.2 2.2.1.8 0 1.5-.1 2.2zm6.2 7h5V0h-5v25.5zm6.4 0h5V7h-5v18.5zm0-21.3h5V0h-5v4.2zM47 16c-.5-.4-1.2-.7-1.8-.9l-2.1-.6c-.7-.2-1.4-.3-2.1-.5-.7-.1-1.3-.3-1.8-.5s-1-.4-1.3-.7c-.3-.3-.5-.7-.5-1.1 0-.4.1-.7.3-.9.2-.2.4-.4.7-.5.3-.1.6-.2.9-.2.3 0 .6-.1.9-.1.9 0 1.7.2 2.3.5.7.3 1 1 1.1 2h4.7c-.1-1.1-.4-2.1-.9-2.8-.5-.8-1.1-1.4-1.8-1.8-.7-.5-1.5-.8-2.5-1-.9-.2-1.9-.3-2.9-.3s-1.9.1-2.9.3c-.9.2-1.8.5-2.5.9s-1.3 1-1.8 1.8-.7 1.7-.7 2.9c0 .8.2 1.5.5 2.1.3.6.8 1 1.3 1.4.5.4 1.2.7 1.8.9l2.1.6c1.8.4 3.2.8 4.2 1.1 1 .4 1.5 1 1.5 1.7 0 .5-.1.8-.3 1.1-.2.3-.5.5-.8.7-.3.2-.7.3-1.1.4-.4.1-.8.1-1.1.1-.5 0-1-.1-1.4-.2-.5-.1-.9-.3-1.2-.6-.4-.2-.6-.6-.9-1-.2-.4-.3-.9-.3-1.4H32c0 1.2.3 2.3.8 3.1.5.8 1.1 1.5 1.9 2 .8.5 1.7.9 2.7 1.1 1 .2 2 .3 3.1.3 1 0 2-.1 3-.3 1-.2 1.9-.6 2.6-1.1.8-.5 1.4-1.2 1.9-2s.7-1.8.7-3.1c0-.9-.2-1.6-.5-2.2-.3-.3-.7-.8-1.2-1.2zm12-5.6V7h-3.6V1.5h-5V7h-3l1.6 3.4h1.5v10.9c0 .9.2 1.7.5 2.3.3.6.7 1 1.2 1.3.5.3 1.1.5 1.8.6.7.1 1.4.2 2.2.2h1.5c.5 0 1-.1 1.4-.1v-3.9c-.2 0-.5.1-.7.1h-.8c-.8 0-1.4-.1-1.7-.4-.3-.3-.4-.9-.4-1.7v-9.2H59z"/></svg>